<?xml version="1.0" standalone="no"?>
<!DOCTYPE svg PUBLIC "-//W3C//DTD SVG 20010904//EN"
 "http://www.w3.org/TR/2001/REC-SVG-20010904/DTD/svg10.dtd">
<svg version="1.0" xmlns="http://www.w3.org/2000/svg"
 width="300.000000pt" height="53.000000pt" viewBox="0 0 300.000000 53.000000"
 preserveAspectRatio="xMidYMid meet">
<metadata>
Created by potrace 1.10, written by Peter Selinger 2001-2011
</metadata>
<g transform="translate(0.000000,53.000000) scale(0.100000,-0.100000)"
fill="#000000" stroke="none">
<path d="M198 359 c-38 -19 -58 -35 -58 -47 0 -15 -6 -18 -29 -14 -16 2 -32
-1 -35 -7 -5 -7 2 -11 17 -11 14 0 30 -7 37 -15 11 -13 7 -15 -24 -15 -20 0
-36 -5 -36 -11 0 -6 8 -8 18 -5 10 4 27 -1 38 -9 19 -14 19 -14 -2 -15 -12 0
-27 -7 -34 -14 -10 -13 -7 -15 15 -13 34 3 55 -24 36 -46 -9 -12 -19 -13 -41
-6 -33 12 -70 -2 -70 -27 0 -11 4 -12 19 -4 13 7 28 7 46 0 41 -16 64 -12 90
15 18 18 25 35 25 65 0 34 4 42 25 50 16 6 34 6 50 0 l25 -10 -30 -61 c-34
-66 -34 -83 0 -49 16 16 28 20 49 15 23 -5 31 -1 45 20 19 28 15 44 -6 28 -16
-13 -68 -23 -68 -13 0 4 9 15 20 25 10 9 27 37 36 60 15 40 15 45 -1 78 -15
31 -65 68 -92 67 -4 -1 -34 -14 -65 -31z m96 -30 c35 -27 33 -37 -8 -44 -52
-10 -76 1 -76 36 0 25 4 29 29 29 15 0 40 -9 55 -21z m-94 -78 c0 -71 -4 -93
-17 -108 -10 -10 -15 -14 -10 -9 4 6 7 51 7 101 0 80 4 105 17 105 2 0 3 -40
3 -89z m120 1 c0 -20 -2 -21 -21 -11 -12 6 -37 9 -55 6 -27 -5 -34 -2 -34 11
0 14 10 17 55 17 51 0 55 -2 55 -23z"/>
<path d="M1387 365 c-26 -12 -50 -25 -54 -28 -3 -4 4 -22 16 -42 11 -20 21
-38 21 -40 0 -3 -12 -11 -27 -19 -57 -31 -57 -30 -25 -79 l28 -45 33 25 32 25
22 -20 c30 -27 58 -34 86 -19 30 15 28 33 -3 29 -26 -3 -59 23 -53 42 2 6 13
10 23 9 27 -4 64 6 64 16 0 16 -54 19 -74 5 -28 -19 -31 -18 -45 12 -11 24 -9
30 14 54 29 31 32 61 8 82 -16 14 -23 13 -66 -7z m43 -51 c0 -12 -4 -26 -10
-29 -13 -8 -34 40 -26 60 9 24 36 1 36 -31z m-34 -105 c13 -26 14 -33 2 -40
-21 -14 -26 -11 -42 20 -11 21 -12 31 -3 40 17 17 25 14 43 -20z"/>
<path d="M1823 357 c-46 -23 -62 -36 -58 -47 4 -13 -1 -15 -29 -12 -18 2 -37
-1 -40 -7 -5 -7 3 -11 22 -11 16 0 35 -7 42 -15 11 -13 7 -15 -23 -15 -20 0
-39 -5 -43 -11 -5 -8 1 -10 18 -6 14 4 32 1 43 -7 17 -12 15 -13 -14 -19 -17
-4 -31 -11 -31 -17 0 -6 10 -8 24 -4 18 4 27 0 36 -16 18 -33 -2 -52 -41 -38
-23 8 -35 7 -54 -6 -14 -9 -25 -21 -25 -26 0 -13 13 -13 26 0 6 6 23 6 48 -1
28 -8 46 -7 67 2 37 15 49 37 49 87 0 34 4 41 24 46 14 3 36 2 51 -4 l26 -10
-32 -60 c-35 -62 -35 -86 0 -51 15 15 28 19 50 15 25 -5 32 -2 45 25 9 17 12
31 7 31 -5 0 -12 -4 -15 -9 -5 -8 -66 -21 -66 -14 0 2 14 22 30 45 41 56 42
113 3 150 -43 41 -70 42 -140 5z m92 -23 c14 -9 25 -22 25 -30 0 -17 -42 -28
-75 -20 -20 5 -25 13 -25 36 0 25 4 30 25 30 14 0 37 -7 50 -16z m-111 -203
c-15 -15 -15 -14 -5 6 6 12 12 64 13 115 l2 93 3 -99 c3 -83 1 -102 -13 -115z
m144 124 c-2 -12 -9 -18 -18 -15 -8 2 -32 4 -52 4 -28 0 -38 4 -38 16 0 12 12
15 55 15 50 0 55 -2 53 -20z"/>
<path d="M965 370 c-11 -5 -31 -6 -45 -2 -22 5 -23 3 -12 -11 10 -11 12 -44
10 -116 l-3 -101 28 -11 c24 -10 31 -9 45 5 15 15 15 16 -1 16 -15 0 -17 12
-17 98 0 62 4 102 12 110 16 16 8 21 -17 12z"/>
<path d="M2367 358 c-8 -30 2 -37 19 -14 18 25 18 36 0 36 -7 0 -16 -10 -19
-22z"/>
<path d="M599 342 c-22 -18 -22 -22 -10 -59 7 -22 12 -63 10 -91 -3 -42 -1
-52 12 -52 8 0 24 -6 34 -14 16 -11 23 -11 52 6 31 19 33 23 33 78 0 42 -5 64
-19 81 l-20 24 -23 -22 c-19 -20 -20 -23 -5 -23 14 0 17 -10 17 -60 0 -33 -3
-60 -7 -60 -25 1 -34 20 -32 73 2 37 -3 63 -14 80 -11 18 -13 27 -5 35 21 21
1 23 -23 4z"/>
<path d="M2238 320 c-17 -21 -23 -37 -17 -41 7 -4 10 -34 8 -73 -3 -57 -1 -68
16 -80 18 -13 24 -12 45 5 l25 19 -22 0 c-22 0 -23 4 -23 65 0 58 2 65 20 65
11 0 20 5 20 10 0 6 -9 10 -19 10 -14 0 -21 8 -23 27 l-3 28 -27 -35z"/>
<path d="M1137 333 c-4 -3 -2 -12 4 -19 15 -19 -13 -29 -39 -15 -34 18 -82
-15 -82 -56 0 -22 6 -36 21 -43 20 -11 20 -12 -6 -46 -28 -36 -28 -57 0 -34 8
7 25 10 40 6 15 -4 37 0 55 9 25 13 30 22 30 50 0 19 -3 35 -7 35 -5 0 -14 4
-22 9 -12 8 -10 16 13 46 15 20 25 43 22 50 -6 16 -18 19 -29 8z m-27 -71 c0
-5 -6 -16 -13 -27 -16 -21 -37 -12 -37 16 0 14 7 19 25 19 14 0 25 -4 25 -8z
m7 -93 c2 -16 -1 -20 -13 -15 -8 3 -22 6 -30 6 -12 0 -12 4 2 26 19 27 35 21
41 -17z"/>
<path d="M2913 321 c7 -27 -5 -34 -38 -21 -21 8 -31 6 -50 -8 -30 -21 -34 -78
-7 -98 16 -12 15 -14 -11 -41 -29 -31 -27 -50 3 -30 14 8 25 8 43 0 20 -10 28
-9 37 3 7 8 19 14 26 14 10 0 14 13 14 40 0 29 -5 42 -20 50 -21 11 -21 12 5
42 27 32 30 58 6 66 -10 3 -12 -1 -8 -17z m-23 -58 c0 -10 -32 -43 -42 -43 -4
0 -8 11 -8 25 0 20 5 25 25 25 14 0 25 -3 25 -7z m-2 -87 c3 -25 1 -27 -20
-21 -31 10 -31 10 -16 34 17 27 32 22 36 -13z"/>
<path d="M458 292 c-25 -15 -28 -23 -28 -69 0 -28 -3 -58 -6 -67 -4 -11 0 -16
12 -16 11 0 27 -7 37 -15 16 -12 23 -11 53 7 33 19 34 22 34 82 0 61 0 63 -35
79 -20 9 -37 17 -38 16 -1 0 -14 -8 -29 -17z m52 -83 c0 -52 -2 -60 -16 -55
-9 3 -18 6 -20 6 -2 0 -4 25 -4 55 0 48 2 55 20 55 18 0 20 -7 20 -61z"/>
<path d="M803 293 c-30 -15 -32 -19 -35 -84 -2 -55 0 -69 11 -69 8 0 22 -7 31
-15 15 -13 20 -12 51 11 l34 25 -37 -6 c-31 -6 -39 -4 -45 10 -6 18 5 31 57
66 l23 15 -23 32 c-27 36 -25 36 -67 15z m47 -54 c0 -5 -9 -13 -20 -19 -18
-10 -20 -8 -20 26 0 36 0 37 20 19 11 -10 20 -22 20 -26z"/>
<path d="M2088 292 c-25 -15 -28 -22 -28 -72 0 -31 -5 -61 -12 -68 -9 -9 -8
-12 8 -12 10 -1 30 -7 43 -14 20 -11 28 -11 52 3 27 15 29 20 29 83 0 65 -1
67 -32 82 -17 9 -32 16 -32 16 -1 0 -13 -8 -28 -18z m50 -86 c3 -51 1 -58 -13
-52 -9 3 -19 6 -21 6 -2 0 -4 25 -4 56 0 47 3 55 18 52 13 -3 18 -15 20 -62z"/>
<path d="M2343 298 c-11 -19 -3 -161 10 -175 9 -9 18 -8 37 7 20 16 22 20 8
20 -15 0 -18 10 -18 59 0 33 5 63 11 66 6 5 4 12 -8 21 -23 17 -30 17 -40 2z"/>
<path d="M2468 292 c-24 -15 -27 -23 -30 -84 -2 -56 0 -68 13 -68 8 0 24 -6
34 -14 16 -12 24 -11 52 3 32 16 33 17 33 83 l0 68 -36 15 c-20 8 -37 15 -38
14 0 0 -13 -8 -28 -17z m60 -85 c3 -52 1 -58 -15 -55 -14 3 -19 15 -21 61 -3
52 -1 58 15 55 14 -3 19 -15 21 -61z"/>
<path d="M2615 290 c-12 -13 -14 -20 -5 -20 9 0 11 -18 8 -69 -3 -57 -1 -71
13 -80 27 -16 42 11 43 82 1 48 4 62 16 62 12 0 16 -15 18 -67 3 -77 19 -99
47 -68 10 11 13 20 7 20 -17 0 -16 122 1 139 10 12 9 13 -7 7 -10 -3 -25 -1
-32 5 -11 9 -19 8 -35 -7 -19 -17 -21 -18 -30 -1 -13 22 -22 22 -44 -3z"/>
</g>
</svg>
